<svg xmlns="http://www.w3.org/2000/svg" viewBox="0 0 13.229 9.443"><path fill="7289DA" d="M4.806 0S3.265-.034 1.632 1.18C1.632 1.18 0 4.114 0 7.73c0 0 .952 1.633 3.458 1.712 0 0 .42-.499.76-.93-1.44-.43-1.985-1.326-1.985-1.326s.114.08.318.193c.011 0 .022.011.045.023.034.022.068.033.102.056.283.159.567.284.828.386.465.193 1.02.363 1.666.487.85.159 1.848.216 2.936.012a8.127 8.127 0 001.643-.488 6.486 6.486 0 001.304-.669s-.567.918-2.052 1.338c.34.419.748.907.748.907 2.506-.08 3.458-1.712 3.458-1.7 0-3.617-1.633-6.553-1.633-6.553C9.976-.034 8.423 0 8.423 0l-.16.182c1.928.578 2.823 1.428 2.823 1.428A9.424 9.424 0 007.674.533a9.59 9.59 0 00-2.29.023c-.067 0-.124.01-.192.022a8.881 8.881 0 00-2.574.714c-.419.182-.668.318-.668.318S2.88.715 4.92.136L4.807 0zM4.5 4.183c.647 0 1.168.556 1.157 1.247 0 .692-.51 1.247-1.157 1.247-.634 0-1.156-.555-1.156-1.247 0-.691.51-1.247 1.156-1.247zm4.138 0c.635 0 1.157.556 1.157 1.247 0 .692-.51 1.247-1.157 1.247-.635 0-1.156-.555-1.156-1.247 0-.691.51-1.247 1.156-1.247z"/></svg>